HIERARCHY
ROOT Hips
{
  OFFSET -0.472234 87.0474 5.97184
  CHANNELS 6 Xposition Yposition Zposition Zrotation Xrotation Yrotation
  JOINT Spine
  {
    OFFSET 0 10.1816 0.1315
    CHANNELS 6 Xposition Yposition Zposition Zrotation Xrotation Yrotation
    JOINT Spine1
    {
      OFFSET 0 10.0835 -1.0008
      CHANNELS 6 Xposition Yposition Zposition Zrotation Xrotation Yrotation
      JOINT Spine2
      {
        OFFSET 0 9.1 -1.3734
        CHANNELS 6 Xposition Yposition Zposition Zrotation Xrotation Yrotation
        JOINT Neck
        {
          OFFSET 0 16.6717 -2.5162
          CHANNELS 6 Xposition Yposition Zposition Zrotation Xrotation Yrotation
          JOINT Head
          {
            OFFSET 0 9.6179 1.685
            CHANNELS 6 Xposition Yposition Zposition Zrotation Xrotation Yrotation
            JOINT HeadTop_End
            {
              OFFSET 0 17.8152 2.585
              CHANNELS 6 Xposition Yposition Zposition Zrotation Xrotation Yrotation
              End Site
              {
                OFFSET 0 0 0
              }
            }
            JOINT LeftEye
            {
              OFFSET 3.0676 6.4095 9.2836
              CHANNELS 6 Xposition Yposition Zposition Zrotation Xrotation Yrotation
              End Site
              {
                OFFSET 0 0 0
              }
            }
            JOINT RightEye
            {
              OFFSET -3.0676 6.4095 9.2835
              CHANNELS 6 Xposition Yposition Zposition Zrotation Xrotation Yrotation
              End Site
              {
                OFFSET 0 0 0
              }
            }
          }
        }
        JOINT LeftShoulder
        {
          OFFSET 4.5704 10.946 -2.628
          CHANNELS 6 Xposition Yposition Zposition Zrotation Xrotation Yrotation
          JOINT LeftArm
          {
            OFFSET 10.5924 -0.5246 -2.2321
            CHANNELS 6 Xposition Yposition Zposition Zrotation Xrotation Yrotation
            JOINT LeftForeArm
            {
              OFFSET 27.8415 -0.0001 0
              CHANNELS 6 Xposition Yposition Zposition Zrotation Xrotation Yrotation
              JOINT LeftHand
              {
                OFFSET 28.3288 0 0
                CHANNELS 6 Xposition Yposition Zposition Zrotation Xrotation Yrotation
                JOINT LeftHandThumb1
                {
                  OFFSET 2.4661 -1.575 2.6824
                  CHANNELS 6 Xposition Yposition Zposition Zrotation Xrotation Yrotation
                  JOINT LeftHandThumb2
                  {
                    OFFSET 3.2298 -1.8647 1.8647
                    CHANNELS 6 Xposition Yposition Zposition Zrotation Xrotation Yrotation
                    JOINT LeftHandThumb3
                    {
                      OFFSET 2.6526 -1.5315 1.5315
                      CHANNELS 6 Xposition Yposition Zposition Zrotation Xrotation Yrotation
                      End Site
                      {
                        OFFSET 1.9546 -1.1285 1.1285
                      }
                    }
                  }
                }
                JOINT LeftHandIndex1
                {
                  OFFSET 9.1093 -0.5171 2.2601
                  CHANNELS 6 Xposition Yposition Zposition Zrotation Xrotation Yrotation
                  JOINT LeftHandIndex2
                  {
                    OFFSET 3.6764 0 0
                    CHANNELS 6 Xposition Yposition Zposition Zrotation Xrotation Yrotation
                    JOINT LeftHandIndex3
                    {
                      OFFSET 2.8831 0 0
                      CHANNELS 6 Xposition Yposition Zposition Zrotation Xrotation Yrotation
                      End Site
                      {
                        OFFSET 2.3927 0 0
                      }
                    }
                  }
                }
                JOINT LeftHandMiddle1
                {
                  OFFSET 9.5334 0 0
                  CHANNELS 6 Xposition Yposition Zposition Zrotation Xrotation Yrotation
                  JOINT LeftHandMiddle2
                  {
                    OFFSET 3.6982 0 0
                    CHANNELS 6 Xposition Yposition Zposition Zrotation Xrotation Yrotation
                    JOINT LeftHandMiddle3
                    {
                      OFFSET 2.9509 0 0
                      CHANNELS 6 Xposition Yposition Zposition Zrotation Xrotation Yrotation
                      End Site
                      {
                        OFFSET 2.8339 0 0
                      }
                    }
                  }
                }
                JOINT LeftHandRing1
                {
                  OFFSET 9.1045 -0.0439 -1.8651
                  CHANNELS 6 Xposition Yposition Zposition Zrotation Xrotation Yrotation
                  JOINT LeftHandRing2
                  {
                    OFFSET 3.154 0 0
                    CHANNELS 6 Xposition Yposition Zposition Zrotation Xrotation Yrotation
                    JOINT LeftHandRing3
                    {
                      OFFSET 2.9377 0 0
                      CHANNELS 6 Xposition Yposition Zposition Zrotation Xrotation Yrotation
                      End Site
                      {
                        OFFSET 2.6475 0 0
                      }
                    }
                  }
                }
                JOINT LeftHandPinky1
                {
                  OFFSET 8.0778 -0.4887 -3.8061
                  CHANNELS 6 Xposition Yposition Zposition Zrotation Xrotation Yrotation
                  JOINT LeftHandPinky2
                  {
                    OFFSET 3.6 0 0
                    CHANNELS 6 Xposition Yposition Zposition Zrotation Xrotation Yrotation
                    JOINT LeftHandPinky3
                    {
                      OFFSET 2.1142 0 0
                      CHANNELS 6 Xposition Yposition Zposition Zrotation Xrotation Yrotation
                      End Site
                      {
                        OFFSET 1.9757 0 0
                      }
                    }
                  }
                }
              }
            }
          }
        }
        JOINT RightShoulder
        {
          OFFSET -4.57 10.9462 -2.628
          CHANNELS 6 Xposition Yposition Zposition Zrotation Xrotation Yrotation
          JOINT RightArm
          {
            OFFSET -10.5928 -0.5248 -2.2321
            CHANNELS 6 Xposition Yposition Zposition Zrotation Xrotation Yrotation
            JOINT RightForeArm
            {
              OFFSET -27.8415 0 0
              CHANNELS 6 Xposition Yposition Zposition Zrotation Xrotation Yrotation
              JOINT RightHand
              {
                OFFSET -28.3288 0 0.0001
                CHANNELS 6 Xposition Yposition Zposition Zrotation Xrotation Yrotation
                JOINT RightHandPinky1
                {
                  OFFSET -8.0767 -0.4885 -3.806
                  CHANNELS 6 Xposition Yposition Zposition Zrotation Xrotation Yrotation
                  JOINT RightHandPinky2
                  {
                    OFFSET -3.6 0 0.0001
                    CHANNELS 6 Xposition Yposition Zposition Zrotation Xrotation Yrotation
                    JOINT RightHandPinky3
                    {
                      OFFSET -2.1142 0 0
                      CHANNELS 6 Xposition Yposition Zposition Zrotation Xrotation Yrotation
                      End Site
                      {
                        OFFSET -1.9757 0 0
                      }
                    }
                  }
                }
                JOINT RightHandRing1
                {
                  OFFSET -9.1036 -0.0439 -1.8651
                  CHANNELS 6 Xposition Yposition Zposition Zrotation Xrotation Yrotation
                  JOINT RightHandRing2
                  {
                    OFFSET -3.154 0 0
                    CHANNELS 6 Xposition Yposition Zposition Zrotation Xrotation Yrotation
                    JOINT RightHandRing3
                    {
                      OFFSET -2.9377 0 0
                      CHANNELS 6 Xposition Yposition Zposition Zrotation Xrotation Yrotation
                      End Site
                      {
                        OFFSET -2.6475 0 0
                      }
                    }
                  }
                }
                JOINT RightHandMiddle1
                {
                  OFFSET -9.5325 0 0
                  CHANNELS 6 Xposition Yposition Zposition Zrotation Xrotation Yrotation
                  JOINT RightHandMiddle2
                  {
                    OFFSET -3.6982 0 0
                    CHANNELS 6 Xposition Yposition Zposition Zrotation Xrotation Yrotation
                    JOINT RightHandMiddle3
                    {
                      OFFSET -2.9509 0 0
                      CHANNELS 6 Xposition Yposition Zposition Zrotation Xrotation Yrotation
                      End Site
                      {
                        OFFSET -2.8339 0 0.0001
                      }
                    }
                  }
                }
                JOINT RightHandIndex1
                {
                  OFFSET -9.1083 -0.5168 2.2601
                  CHANNELS 6 Xposition Yposition Zposition Zrotation Xrotation Yrotation
                  JOINT RightHandIndex2
                  {
                    OFFSET -3.6764 0 0
                    CHANNELS 6 Xposition Yposition Zposition Zrotation Xrotation Yrotation
                    JOINT RightHandIndex3
                    {
                      OFFSET -2.8831 0 0
                      CHANNELS 6 Xposition Yposition Zposition Zrotation Xrotation Yrotation
                      End Site
                      {
                        OFFSET -2.3927 0 0
                      }
                    }
                  }
                }
                JOINT RightHandThumb1
                {
                  OFFSET -2.4648 -1.5727 2.6826
                  CHANNELS 6 Xposition Yposition Zposition Zrotation Xrotation Yrotation
                  JOINT RightHandThumb2
                  {
                    OFFSET -3.2298 -1.8647 1.8647
                    CHANNELS 6 Xposition Yposition Zposition Zrotation Xrotation Yrotation
                    JOINT RightHandThumb3
                    {
                      OFFSET -2.6526 -1.5314 1.5314
                      CHANNELS 6 Xposition Yposition Zposition Zrotation Xrotation Yrotation
                      End Site
                      {
                        OFFSET -1.9546 -1.1285 1.1285
                      }
                    }
                  }
                }
              }
            }
          }
        }
      }
    }
  }
  JOINT LeftUpLeg
  {
    OFFSET 8.2078 -6.7517 -1.5996
    CHANNELS 6 Xposition Yposition Zposition Zrotation Xrotation Yrotation
    JOINT LeftLeg
    {
      OFFSET 0 -44.3705 0.2846
      CHANNELS 6 Xposition Yposition Zposition Zrotation Xrotation Yrotation
      JOINT LeftFoot
      {
        OFFSET 0 -44.4279 -2.9822
        CHANNELS 6 Xposition Yposition Zposition Zrotation Xrotation Yrotation
        JOINT LeftToeBase
        {
          OFFSET 0 -8.7287 10.7106
          CHANNELS 6 Xposition Yposition Zposition Zrotation Xrotation Yrotation
          End Site
          {
            OFFSET 0 -0.0007 9.2781
          }
        }
      }
    }
  }
  JOINT RightUpLeg
  {
    OFFSET -8.2078 -6.7517 -1.5996
    CHANNELS 6 Xposition Yposition Zposition Zrotation Xrotation Yrotation
    JOINT RightLeg
    {
      OFFSET 0 -44.3705 0.2862
      CHANNELS 6 Xposition Yposition Zposition Zrotation Xrotation Yrotation
      JOINT RightFoot
      {
        OFFSET 0 -44.4277 -2.9838
        CHANNELS 6 Xposition Yposition Zposition Zrotation Xrotation Yrotation
        JOINT RightToeBase
        {
          OFFSET 0 -8.7287 10.7106
          CHANNELS 6 Xposition Yposition Zposition Zrotation Xrotation Yrotation
          End Site
          {
            OFFSET 0 -0.0007 9.2781
          }
        }
      }
    }
  }
}
MOTION
Frames:	4
Frame Time:	0.0333333
6.418 90.6852 48.6175 2.65363 -3.31016 -51.936 7.10543e-015 10.1816 0.1315 0.0214752 4.4561 1.22432 0 10.0835 -1.0008 -1.92615 7.17811 2.88505 0 9.1 -1.3734 -1.8999 7.12415 3.06277 0 16.6717 -2.5162 -6.02312 9.50508 5.05345 0 9.6179 1.685 -10.6672 1.41159 18.2744 0 17.8152 2.585 1.59028e-015 3.18055e-015 -4.77083e-015 3.0676 6.4095 9.2836 1.59028e-015 3.18055e-015 -4.77083e-015 -3.0676 6.4095 9.2835 1.59028e-015 3.18055e-015 -4.77083e-015 4.5704 10.946 -2.628 -1.65759 -1.5714 14.5268 10.5924 -0.5246 -2.2321 -41.6895 -7.39649 -36.2435 27.8415 -0.0001 0 -27.8166 -17.7004 -115.677 28.3288 0 -2.13163e-014 10.5483 13.1426 -9.21979 2.4661 -1.575 2.6824 -6.17636 9.43586 8.13986 3.2298 -1.8647 1.8647 2.98972 14.8955 18.5383 2.6526 -1.5315 1.5315 1.36434 23.1648 46.4465 9.1093 -0.5171 2.2601 -77.4901 -5.41089 6.74024 3.6764 0 -1.42109e-014 -100.857 -8.2004 6.78077 2.8831 1.42109e-014 7.10543e-015 -77.805 -5.44795 6.7484 9.5334 0 1.42109e-014 -77.4742 -5.40901 6.73983 3.6982 2.84217e-014 0 -100.873 -8.20229 6.7804 2.9509 0 -7.10543e-015 -77.805 -5.44795 6.7484 9.1045 -0.0439 -1.8651 -77.4901 -5.41089 6.74024 3.154 0 0 -100.857 -8.2004 6.78077 2.9377 0 -7.10543e-015 -77.805 -5.44795 6.7484 8.0778 -0.4887 -3.8061 -77.0292 -5.99461 9.03829 3.6 0 -1.42109e-014 -101.208 -4.21154 7.56016 2.1142 1.42109e-014 0 -77.7646 -5.4432 6.74736 -4.57 10.9462 -2.628 -10.9291 -0.956422 11.0383 -10.5928 -0.5248 -2.2321 39.1407 -5.86027 48.2476 -27.8415 0 0 28.6109 -17.3144 118.318 -28.3288 -1.42109e-014 0.0001 -15.7467 -15.1521 6.55389 -8.0767 -0.4885 -3.806 78.3617 -5.56769 -6.83019 -3.6 0 0.0001 89.7254 -6.93772 -6.97257 -2.1142 7.10543e-015 0 63.4769 -3.85939 -6.23572 -9.1036 -0.0439 -1.8651 78.3617 -5.56769 -6.8286 -3.154 0 -7.10543e-015 89.7254 -6.93931 -6.97258 -2.9377 0 -7.10543e-015 63.4769 -3.85939 -6.23572 -9.5325 0 -7.10543e-015 78.3617 -5.56769 -6.8286 -3.6982 0 7.10543e-015 89.7254 -6.93931 -6.97258 -2.9509 -7.10543e-015 0 63.4769 -3.85939 -6.23775 -9.1083 -0.5168 2.2601 78.3617 -5.56769 -6.8286 -3.6764 0 0 89.7254 -6.93931 -6.97258 -2.8831 0 0 63.4769 -3.85939 -6.23572 -2.4648 -1.5727 2.6826 6.65502 0.935982 -15.8205 -3.2298 -1.8647 1.8647 1.00484 20.5037 -16.724 -2.6526 -1.5314 1.5314 -4.08928 41.2989 -44.5019 8.2078 -6.7517 -1.5996 27.7755 -26.5291 20.4669 0 -44.3705 0.2846 10.5756 24.3889 -13.205 0 -44.4279 -2.9822 -21.9685 17.9462 -6.85675 0 -8.7287 10.7106 -0.506179 -3.18205 -0.0257581 -8.2078 -6.7517 -1.5996 -29.3581 -10.4539 -17.8036 3.55271e-015 -44.3705 0.2862 -9.27711 43.0019 0.628897 -1.77636e-015 -44.4277 -2.9838 28.3626 -17.5419 2.21732 -8.88178e-016 -8.7287 10.7106 -6.32108e-006 -4.81983 4.23396e-006 
5.91969 91.8066 45.2934 2.82916 -3.79177 -49.4848 0 10.1816 0.1315 0.0883074 4.59671 1.16468 0 10.0835 -1.0008 -1.69436 7.27785 2.72234 0 9.1 -1.3734 -1.66625 7.22915 2.89112 7.10543e-015 16.6717 -2.5162 -5.94898 9.27438 4.88081 0 9.6179 1.685 -10.6966 2.10848 17.395 1.77636e-015 17.8152 2.585 1.59028e-015 -3.18055e-015 -0 3.0676 6.4095 9.2836 1.59028e-015 -3.18055e-015 -0 -3.0676 6.4095 9.2835 1.59028e-015 -3.18055e-015 -0 4.5704 10.946 -2.628 -1.58634 -1.47902 14.028 10.5924 -0.5246 -2.2321 -43.2865 -7.38489 -38.5952 27.8415 -0.0001 1.42109e-014 -27.879 -17.6717 -115.883 28.3288 0 7.10543e-015 11.5128 13.3831 -9.91435 2.4661 -1.575 2.6824 -6.17636 9.43586 8.13986 3.2298 -1.8647 1.8647 2.98972 14.8955 18.5383 2.6526 -1.5315 1.5315 1.36434 23.1648 46.4465 9.1093 -0.5171 2.2601 -77.4901 -5.41089 6.74024 3.6764 2.84217e-014 0 -100.857 -8.2004 6.78077 2.8831 -7.10543e-015 7.10543e-015 -77.805 -5.44795 6.7484 9.5334 1.42109e-014 -7.10543e-015 -77.4742 -5.40901 6.73983 3.6982 -2.84217e-014 -1.42109e-014 -100.873 -8.20229 6.7804 2.9509 7.10543e-015 0 -77.805 -5.44795 6.7484 9.1045 -0.0439 -1.8651 -77.4901 -5.41089 6.74024 3.154 0 1.42109e-014 -100.857 -8.2004 6.78077 2.9377 0 -7.10543e-015 -77.805 -5.44795 6.7484 8.0778 -0.4887 -3.8061 -77.0292 -5.99461 9.03829 3.6 0 1.42109e-014 -101.208 -4.21154 7.56016 2.1142 -7.10543e-015 1.42109e-014 -77.7646 -5.4432 6.74736 -4.57 10.9462 -2.628 -11.3714 -1.02093 10.3708 -10.5928 -0.5248 -2.2321 39.271 -6.8273 47.9201 -27.8415 -1.42109e-014 0 28.6317 -17.3037 118.388 -28.3288 0 0.0001 -15.4523 -15.242 6.71794 -8.0767 -0.4885 -3.806 78.3617 -5.56769 -6.83019 -3.6 -2.84217e-014 0.0001 89.7254 -6.93772 -6.97257 -2.1142 3.55271e-015 -7.10543e-015 63.4769 -3.85939 -6.23572 -9.1036 -0.0439 -1.8651 78.3617 -5.56769 -6.8286 -3.154 2.84217e-014 -2.13163e-014 89.7254 -6.93931 -6.97258 -2.9377 -7.10543e-015 -7.10543e-015 63.4769 -3.85939 -6.23572 -9.5325 -3.55271e-015 -2.13163e-014 78.3617 -5.56769 -6.8286 -3.6982 2.84217e-014 -7.10543e-015 89.7254 -6.93931 -6.97258 -2.9509 -3.55271e-015 0 63.4769 -3.85939 -6.23775 -9.1083 -0.5168 2.2601 78.3617 -5.56769 -6.8286 -3.6764 0 0 89.7254 -6.93931 -6.97258 -2.8831 3.55271e-015 0 63.4769 -3.85939 -6.23572 -2.4648 -1.5727 2.6826 6.65502 0.935982 -15.8205 -3.2298 -1.8647 1.8647 1.00484 20.5037 -16.724 -2.6526 -1.5314 1.5314 -4.08928 41.2989 -44.5019 8.2078 -6.7517 -1.5996 24.9875 -27.9339 19.2171 0 -44.3705 0.2846 10.9275 28.7312 -14.148 0 -44.4279 -2.9822 -22.9174 13.1629 -6.68295 0 -8.7287 10.7106 -4.59044e-006 -1.38296 -1.54451e-005 -8.2078 -6.7517 -1.5996 -28.143 -9.93063 -17.799 0 -44.3705 0.2862 -8.13855 43.1122 -1.3523 1.77636e-015 -44.4277 -2.9838 28.6108 -17.1156 2.3963 -8.88178e-016 -8.7287 10.7106 -1.35162e-005 -4.81441 2.15859e-006 
5.64183 92.9858 42.2397 2.61025 -3.97602 -47.9324 -7.10543e-015 10.1816 0.1315 0.113266 4.96625 1.12002 -7.10543e-015 10.0835 -1.0008 -1.49857 7.605 2.57171 0 9.1 -1.3734 -1.4629 7.56576 2.72034 0 16.6717 -2.5162 -5.724 9.05165 4.70341 3.55271e-015 9.6179 1.685 -11.0846 2.56394 16.8975 1.77636e-015 17.8152 2.585 -3.18055e-015 0 4.77083e-015 3.0676 6.4095 9.2836 -3.18055e-015 0 4.77083e-015 -3.0676 6.4095 9.2835 -3.18055e-015 0 4.77083e-015 4.5704 10.946 -2.628 -0.788751 -1.33114 13.5099 10.5924 -0.5246 -2.2321 -45.1331 -7.53403 -40.7909 27.8415 -0.0001 0 -27.8542 -17.6831 -115.801 28.3288 -1.42109e-014 0 12.5385 13.9232 -10.6713 2.4661 -1.575 2.6824 -6.17636 9.43586 8.13986 3.2298 -1.8647 1.8647 2.98972 14.8955 18.5383 2.6526 -1.5315 1.5315 1.36434 23.1648 46.4465 9.1093 -0.5171 2.2601 -77.4901 -5.41089 6.74024 3.6764 0 1.42109e-014 -100.857 -8.2004 6.78077 2.8831 0 0 -77.805 -5.44795 6.7484 9.5334 1.42109e-014 1.42109e-014 -77.4742 -5.40901 6.73983 3.6982 0 0 -100.873 -8.20229 6.7804 2.9509 0 -7.10543e-015 -77.805 -5.44795 6.7484 9.1045 -0.0439 -1.8651 -77.4901 -5.41089 6.74024 3.154 0 -1.42109e-014 -100.857 -8.2004 6.78077 2.9377 0 1.42109e-014 -77.805 -5.44795 6.7484 8.0778 -0.4887 -3.8061 -77.0292 -5.99461 9.03829 3.6 2.84217e-014 1.42109e-014 -101.208 -4.21154 7.56016 2.1142 7.10543e-015 -7.10543e-015 -77.7646 -5.4432 6.74736 -4.57 10.9462 -2.628 -11.4547 -1.01359 9.93171 -10.5928 -0.5248 -2.2321 39.9481 -7.49287 47.936 -27.8415 0 7.10543e-015 28.6606 -17.2887 118.485 -28.3288 0 0.0001 -15.2671 -15.1971 6.98201 -8.0767 -0.4885 -3.806 78.3617 -5.56769 -6.83019 -3.6 0 0.0001 89.7254 -6.93772 -6.97257 -2.1142 3.55271e-015 -1.42109e-014 63.4769 -3.85939 -6.23572 -9.1036 -0.0439 -1.8651 78.3617 -5.56769 -6.8286 -3.154 -2.84217e-014 0 89.7254 -6.93931 -6.97258 -2.9377 -3.55271e-015 2.13163e-014 63.4769 -3.85939 -6.23572 -9.5325 0 7.10543e-015 78.3617 -5.56769 -6.8286 -3.6982 0 7.10543e-015 89.7254 -6.93931 -6.97258 -2.9509 -3.55271e-015 7.10543e-015 63.4769 -3.85939 -6.23775 -9.1083 -0.5168 2.2601 78.3617 -5.56769 -6.8286 -3.6764 0 7.10543e-015 89.7254 -6.93931 -6.97258 -2.8831 0 -7.10543e-015 63.4769 -3.85939 -6.23572 -2.4648 -1.5727 2.6826 6.65502 0.935982 -15.8205 -3.2298 -1.8647 1.8647 1.00484 20.5037 -16.724 -2.6526 -1.5314 1.5314 -4.08928 41.2989 -44.5019 8.2078 -6.7517 -1.5996 22.4669 -28.8133 17.7972 0 -44.3705 0.2846 10.9904 34.7422 -15.3532 -1.42109e-014 -44.4279 -2.9822 -25.3779 8.28404 -6.52516 0 -8.7287 10.7106 -3.7204e-007 -1.11527 3.70356e-005 -8.2078 -6.7517 -1.5996 -26.2638 -9.93057 -17.319 -3.55271e-015 -44.3705 0.2862 -7.62393 42.8816 -2.68291 -8.88178e-016 -44.4277 -2.9838 27.741 -16.1646 2.01992 0 -8.7287 10.7106 -0.00220652 -5.62327 -0.000204492 
5.59276 94.1976 39.7892 2.18115 -3.56965 -47.4556 0 10.1816 0.1315 0.240556 5.27356 1.07613 0 10.0835 -1.0008 -1.28753 7.85864 2.44057 0 9.1 -1.3734 -1.24419 7.82825 2.56344 -7.10543e-015 16.6717 -2.5162 -5.43426 8.96043 4.56044 -3.55271e-015 9.6179 1.685 -11.6286 2.8588 16.7919 0 17.8152 2.585 3.18055e-015 3.18055e-015 1.59028e-015 3.0676 6.4095 9.2836 3.18055e-015 3.18055e-015 1.59028e-015 -3.0676 6.4095 9.2835 3.18055e-015 3.18055e-015 1.59028e-015 4.5704 10.946 -2.628 0.128447 -1.19334 13.0767 10.5924 -0.5246 -2.2321 -46.4933 -7.74268 -42.4267 27.8415 -0.0001 0 -27.7748 -17.7195 -115.54 28.3288 0 7.10543e-015 13.1599 14.5409 -11.0612 2.4661 -1.575 2.6824 -6.17636 9.43586 8.13986 3.2298 -1.8647 1.8647 2.98972 14.8955 18.5383 2.6526 -1.5315 1.5315 1.36434 23.1648 46.4465 9.1093 -0.5171 2.2601 -77.4901 -5.41089 6.74024 3.6764 0 1.42109e-014 -100.857 -8.2004 6.78077 2.8831 7.10543e-015 0 -77.805 -5.44795 6.7484 9.5334 0 7.10543e-015 -77.4742 -5.40901 6.73983 3.6982 2.84217e-014 0 -100.873 -8.20229 6.7804 2.9509 -7.10543e-015 7.10543e-015 -77.805 -5.44795 6.7484 9.1045 -0.0439 -1.8651 -77.4901 -5.41089 6.74024 3.154 0 1.42109e-014 -100.857 -8.2004 6.78077 2.9377 7.10543e-015 0 -77.805 -5.44795 6.7484 8.0778 -0.4887 -3.8061 -77.0292 -5.99461 9.03829 3.6 -2.84217e-014 0 -101.208 -4.21154 7.56016 2.1142 0 0 -77.7646 -5.4432 6.74736 -4.57 10.9462 -2.628 -11.1177 -0.941668 9.9828 -10.5928 -0.5248 -2.2321 40.7352 -7.53979 47.9134 -27.8415 0 0 28.7293 -17.253 118.716 -28.3288 7.10543e-015 0.0001 -15.3536 -15.0178 7.13601 -8.0767 -0.4885 -3.806 78.3617 -5.56769 -6.83019 -3.6 0 0.0001 89.7254 -6.93772 -6.97257 -2.1142 -3.55271e-015 -7.10543e-015 63.4769 -3.85939 -6.23572 -9.1036 -0.0439 -1.8651 78.3617 -5.56769 -6.8286 -3.154 -2.84217e-014 1.42109e-014 89.7254 -6.93931 -6.97258 -2.9377 -7.10543e-015 0 63.4769 -3.85939 -6.23572 -9.5325 0 7.10543e-015 78.3617 -5.56769 -6.8286 -3.6982 -2.84217e-014 -7.10543e-015 89.7254 -6.93931 -6.97258 -2.9509 0 7.10543e-015 63.4769 -3.85939 -6.23775 -9.1083 -0.5168 2.2601 78.3617 -5.56769 -6.8286 -3.6764 0 0 89.7254 -6.93931 -6.97258 -2.8831 0 -7.10543e-015 63.4769 -3.85939 -6.23572 -2.4648 -1.5727 2.6826 6.65502 0.935982 -15.8205 -3.2298 -1.8647 1.8647 1.00484 20.5037 -16.724 -2.6526 -1.5314 1.5314 -4.08928 41.2989 -44.5019 8.2078 -6.7517 -1.5996 20.7409 -29.44 16.8468 -7.10543e-015 -44.3705 0.2846 10.2142 41.735 -15.9938 1.42109e-014 -44.4279 -2.9822 -27.4962 3.93655 -6.69299 0 -8.7287 10.7106 0.0463347 -1.64048 0.00131094 -8.2078 -6.7517 -1.5996 -24.0791 -10.4281 -16.6116 -3.55271e-015 -44.3705 0.2862 -7.14236 42.0435 -3.72005 -8.88178e-016 -44.4277 -2.9838 26.014 -14.4377 1.26651 0 -8.7287 10.7106 -0.0118683 -6.89963 -0.00110903 
